<?xml version="1.0" encoding="iso-8859-1"?>
<!-- Generator: Adobe Illustrator 24.0.2, SVG Export Plug-In . SVG Version: 6.00 Build 0)  -->
<svg version="1.1" id="Layer_1" xmlns="http://www.w3.org/2000/svg" xmlns:xlink="http://www.w3.org/1999/xlink" x="0px" y="0px"
	 viewBox="0 0 370.882 183.83" style="enable-background:new 0 0 370.882 183.83;" xml:space="preserve">
<path d="M253.881,49.886c-6.502,8.533-12.491,15.888-17.763,23.725c-1.094,1.626-0.316,5.543,0.956,7.54
	c4.389,6.887,9.473,13.328,14.074,20.087c1.174,1.725,1.542,3.998,2.28,6.019c-0.762,0.415-1.524,0.83-2.287,1.245
	c-1.797-2.011-3.778-3.888-5.362-6.055c-8.406-11.5-17.21-22.755-24.87-34.737c-4.769-7.459-10.678-11.767-19.23-12.856
	c-9.819,13.693-9.819,13.693-20.585,1.876c-4.537,5.695-9.035,11.341-14.479,18.175c-2.8-5.804-4.908-10.172-7.894-16.364
	c-4.449,3.232-9.521,5.551-12.626,9.44c-7.889,9.882-14.836,20.511-22.306,30.735c-1.508,2.064-3.659,3.659-5.514,5.471
	c-0.784-0.556-1.568-1.113-2.351-1.669c1.626-2.892,3.06-5.914,4.911-8.654c7.377-10.917,7.436-10.893-0.72-20.934
	c-3.796-4.674-7.642-9.308-12.183-14.833c-5.955,8.014-11.367,15.297-16.037,21.581c3.529,3.003,6.606,5.623,9.68,8.24
	c3.324-3.953,6.956-8.273,10.589-12.594c0.975,0.806,1.949,1.611,2.924,2.417c-4.308,6.593-8.615,13.185-12.923,19.778
	c-0.889,0.307-1.778,0.614-2.667,0.92c-0.633-1.438-1.085-2.993-1.929-4.294c-4.544-7.008-9.618-7.532-15.301-1.206
	c-4.048,4.506-7.409,9.626-11.408,14.18c-1.069,1.217-3.358,1.362-5.086,1.999c0.204-1.649-0.165-3.725,0.699-4.881
	c12.942-17.336,26.039-34.555,39.142-51.77c0.432-0.568,1.314-0.793,3.042-1.783c7.294,8.67,14.686,17.456,22.911,27.231
	c17.088-24.051,33.88-47.684,51.927-73.085c15.858,22.696,30.843,44.142,46.665,66.785c6.333-8.194,12.151-15.855,18.116-23.399
	c5.478-6.929,6.159-6.929,11.587-0.001c13.838,17.659,27.648,35.34,41.349,53.105c1.677,2.174,2.618,4.916,3.899,7.394
	c-1.041,0.722-2.082,1.444-3.123,2.166C286.221,90.89,270.456,70.901,253.881,49.886z M183.448,14.327
	c-9.565,13.38-18.48,25.853-26.569,37.169c2.788,1.495,5.598,2.209,7.101,4.012c1.784,2.139,2.443,5.216,3.905,8.62
	c4.967-6.15,9.143-11.319,13.898-17.207c3.69,4.849,6.557,8.617,9.497,12.481c4.954-4.788,5.75-15.026,17.965-8.255
	C199.863,37.756,192.04,26.59,183.448,14.327z"/>
<path d="M350.733,97.169c-4.184-1.781-8.368-3.561-12.515-5.327c0.728-4.785,3.106-6.081,7.064-5.294
	c1.933,0.384,3.998,0.171,5.895,0.654c4.956,1.26,8.73,0.342,11.753-4.262c0.831-1.266,3.941-1.037,6.006-1.493
	c0.087,2.062,1.088,4.963,0.101,6.038c-4.127,4.495-3.157,8.853-0.901,13.566c0.85,1.776,1.344,3.72,2.11,5.541
	c1.118,2.659,0.93,5.232-1.939,6.12c-1.111,0.344-3.293-1.32-4.358-2.594c-1.991-2.381-3.522-5.146-5.499-8.137
	c-2.8,2.738-5.42,4.974-4.355,9.309c0.215,0.873-0.844,2.619-1.737,3.017c-0.653,0.291-2.049-0.893-3.021-1.554
	c-1.809-1.232-3.595-2.507-5.305-3.872c-1.058-0.845-1.956-1.89-2.926-2.845c1.158-1.02,2.221-2.184,3.497-3.028
	c2.25-1.489,4.63-2.783,6.955-4.159C351.284,98.289,351.009,97.729,350.733,97.169z M349.866,107.676
	c2.194-2.788,4.284-5.467,6.401-8.126c1.701-2.137,3.215-1.891,4.643,0.349c1.881,2.95,3.832,5.856,5.753,8.78
	c-0.136-3.245-0.932-6.103-2.251-8.694c-2.178-4.276-3.209-8.201,0.94-11.977c0.851-0.775,1.057-2.259,1.56-3.417
	c-1.893,0.344-3.124,1.047-3.721,2.107c-2.327,4.138-5.698,4.848-10.064,3.921c-3.13-0.665-6.403-0.656-9.612-0.948
	c-0.091,0.333-0.182,0.666-0.272,0.998c4.003,1.517,8.005,3.034,13.165,4.989c-3.188,4.143-5.882,7.645-8.527,11.083
	C348.206,106.895,349.34,107.429,349.866,107.676z"/>
<path style="fill:#FFFFFF;" d="M364.412,99.986c1.32,2.59,2.12,5.45,2.25,8.69c-1.92-2.92-3.87-5.83-5.75-8.78
	c-1.43-2.24-2.94-2.48-4.64-0.35c-2.12,2.66-4.21,5.34-6.4,8.13c-0.53-0.25-1.66-0.78-1.99-0.93c2.65-3.44,5.34-6.94,8.53-11.09
	c-5.16-1.95-9.16-3.47-13.17-4.99c0.09-0.33,0.18-0.66,0.28-1c3.2,0.3,6.48,0.29,9.61,0.95c4.36,0.93,7.73,0.22,10.06-3.92
	c0.6-1.06,1.83-1.76,3.72-2.1c-0.5,1.15-0.71,2.64-1.56,3.41C361.202,91.786,362.242,95.706,364.412,99.986z"/>
<g>
	<path d="M270.403,160.451c-8.41,0-15.724,0-24.129,0c0,5.632-0.062,11.104,0.024,16.573c0.047,3.034-0.082,5.586-4.197,5.59
		c-3.791,0.004-4.603-1.953-4.584-5.288c0.078-13.533,0.046-27.068-0.086-40.6c-0.031-3.176,1.061-4.962,4.33-4.991
		c3.181-0.028,4.626,1.502,4.525,4.806c-0.157,5.117-0.041,10.242-0.041,15.724c8.166,0,15.621,0,24.109,0
		c0-5.189-0.38-10.32,0.197-15.341c0.214-1.865,2.415-4.556,4.158-4.967c3.424-0.808,4.74,1.737,4.721,5.103
		c-0.075,13.533-0.085,27.066-0.025,40.599c0.014,3.146-1.171,5.503-4.381,4.621c-1.827-0.502-4.229-2.903-4.411-4.653
		C270.043,172.145,270.403,166.566,270.403,160.451z"/>
	<path d="M343.18,148.645c10.016-6.086,18.178-5.515,23.553,0.935c5.847,7.016,5.445,22.127-0.77,28.936
		c-5.554,6.085-13.462,6.17-21.199,1.082c-3.234,1.14-5.572,2.604-7.781,2.429c-0.888-0.07-2.097-3.731-2.124-5.771
		c-0.187-13.918-0.078-27.839-0.113-41.759c-0.007-2.95-0.077-5.682,4.088-5.71c3.966-0.027,4.447,2.346,4.373,5.493
		C343.1,138.802,343.18,143.329,343.18,148.645z M343.238,163.343c0.069,8.171,2.449,11.856,8.05,12.469
		c6.396,0.7,10.454-3.452,10.882-11.134c0.46-8.261-3.431-13.603-9.842-13.511C346.43,151.252,343.172,155.616,343.238,163.343z"/>
	<path d="M160.914,166.076c1.061,8.65,7.748,12.259,15.192,8.753c1.248-0.588,2.299-1.975,3.535-2.105
		c1.542-0.162,3.761,0.109,4.597,1.107c0.681,0.812,0.336,3.561-0.553,4.435c-5.722,5.625-12.865,6.106-20.061,4.054
		c-7.286-2.078-10.992-7.761-11.885-15.01c-1.008-8.182,0.72-15.739,8.224-20.393c6.379-3.957,13.291-3.997,19.852-0.15
		c6.035,3.539,7.514,9.589,7.402,15.96c-0.02,1.142-2.761,3.123-4.319,3.198C175.754,166.269,168.584,166.076,160.914,166.076z
		 M178.831,159.93c-0.244-6.253-3.382-8.958-8.586-9.2c-5.084-0.236-8.672,3.572-9.111,9.2
		C166.831,159.93,172.515,159.93,178.831,159.93z"/>
	<path d="M97.577,180.11c-5.427,0.98-10.483,2.532-15.569,2.636c-5.248,0.107-8.239-3.729-9.069-8.729
		c-0.798-4.807,1.003-8.996,5.559-10.809c4.176-1.662,8.837-2.062,13.198-3.319c1.798-0.518,3.37-1.822,5.045-2.768
		c-1.727-1.85-3.236-4.91-5.232-5.271c-3.102-0.561-6.525,0.948-9.835,1.118c-1.777,0.091-3.603-0.783-5.408-1.221
		c0.771-1.601,1.113-3.941,2.384-4.677c6.426-3.72,13.38-3.953,20.098-1.028c6.315,2.75,6.815,8.842,7.006,14.725
		c0.169,5.178,0.298,10.385-0.082,15.54c-0.159,2.153-1.678,4.206-2.579,6.305C100.914,181.623,98.734,180.635,97.577,180.11z
		 M96.127,164.709c-3.286,0.583-6.213,1.068-9.122,1.643c-0.765,0.151-1.785,0.373-2.154,0.922c-1.22,1.811-3.117,3.866-2.962,5.673
		c0.116,1.347,2.869,3.193,4.689,3.536C92.964,177.685,97.156,172.686,96.127,164.709z"/>
	<path d="M313.692,179.07c-0.732,0.445-2.643,1.953-4.806,2.861c-9.914,4.161-18.211-1.285-18.444-12.091
		c-0.141-6.569,0.104-13.148-0.11-19.714c-0.111-3.383,0.76-5.315,4.474-5.363c4.22-0.054,4.072,2.743,4.044,5.673
		c-0.051,5.377,0.011,10.754,0.013,16.131c0.002,4.798,0.939,8.901,6.937,9.07c4.981,0.14,9.113-3.538,9.4-8.853
		c0.3-5.561,0.207-11.152,0.065-16.724c-0.086-3.373,0.866-5.321,4.639-5.2c3.526,0.114,4.131,2.097,4.078,5.117
		c-0.155,8.761,0.054,17.531-0.274,26.283c-0.079,2.116-1.682,4.174-2.584,6.259C318.936,181.504,316.749,180.489,313.692,179.07z"
		/>
	<path d="M15.921,139.66c-4.075,0-7.846,0.361-11.488-0.165C2.822,139.262,1.47,137.234,0,136.02c1.478-1.44,2.919-4.08,4.441-4.128
		c10.723-0.335,21.467-0.281,32.191,0.062c1.461,0.047,2.848,2.395,4.269,3.677c-1.518,1.356-2.88,3.579-4.585,3.884
		c-3.434,0.614-7.055,0.183-11.445,0.183c0,8.379,0.003,16.255-0.001,24.131c-0.002,4.373-0.101,8.749,0.002,13.119
		c0.072,3.085-0.238,5.575-4.239,5.593c-3.872,0.018-4.427-2.183-4.392-5.427c0.113-10.336,0.027-20.674-0.016-31.011
		C16.216,144.166,16.047,142.228,15.921,139.66z"/>
	<path d="M129.864,173.513c3.157-8.829,5.751-16.489,8.693-24.014c0.708-1.81,2.277-3.937,3.96-4.575
		c3.436-1.304,5.849,1.305,4.552,4.777c-3.757,10.053-7.546,20.107-11.84,29.935c-0.706,1.615-4.104,3.004-6.115,2.831
		c-1.986-0.171-4.726-2.051-5.514-3.88c-3.851-8.934-7.297-18.053-10.538-27.23c-0.614-1.739-0.306-5.309,0.709-5.831
		c2.877-1.478,5.816-0.701,7.117,2.959C123.681,156.342,126.515,164.184,129.864,173.513z"/>
	<path d="M195.255,152.25c0-5.97,0.088-11.942-0.034-17.909c-0.068-3.351,0.315-6.011,4.613-5.873
		c3.926,0.126,4.258,2.636,4.232,5.729c-0.098,11.543-0.061,23.086-0.126,34.629c-0.019,3.391,0.121,6.341,4.647,6.881
		c1.065,0.127,2.667,2.423,2.584,3.622c-0.083,1.205-1.785,2.978-3.08,3.306c-6.848,1.734-11.955-1.748-12.434-8.911
		c-0.477-7.128-0.104-14.313-0.104-21.474C195.454,152.25,195.354,152.25,195.255,152.25z"/>
	<path d="M55.521,147.601c3.036-1.071,6.377-2.619,9.884-3.262c1.038-0.19,3.528,2.136,3.57,3.37
		c0.046,1.345-1.746,3.637-3.137,4.007c-10.454,2.779-11.076,3.388-11.087,13.867c-0.004,3.777-0.037,7.556,0.037,11.332
		c0.061,3.147,0.225,5.99-4.414,5.865c-4.236-0.114-4.096-2.689-4.08-5.634c0.047-8.548-0.166-17.103,0.107-25.642
		c0.071-2.214,1.545-4.384,2.375-6.574C51.014,145.815,53.252,146.702,55.521,147.601z"/>
</g>
<path style="fill:#FFFFFF;" d="M185.827,14.327c8.592,12.263,16.415,23.429,25.797,36.821c-12.214-6.771-13.011,3.467-17.965,8.255
	c-2.94-3.864-5.807-7.631-9.497-12.481c-4.755,5.887-8.931,11.057-13.898,17.207c-1.462-3.404-2.122-6.481-3.905-8.62
	c-1.504-1.803-4.313-2.518-7.101-4.012C167.347,40.18,176.262,27.707,185.827,14.327z"/>
</svg>
