<?xml version="1.0" encoding="utf-8"?>
<!-- Generator: Adobe Illustrator 24.0.2, SVG Export Plug-In . SVG Version: 6.00 Build 0)  -->
<svg version="1.1" id="Layer_1" xmlns="http://www.w3.org/2000/svg" xmlns:xlink="http://www.w3.org/1999/xlink" x="0px" y="0px"
	 viewBox="0 0 370.9 183.8" style="enable-background:new 0 0 370.9 183.8;" xml:space="preserve">
<style type="text/css">
	.st0{fill:#FFFFFF;}
</style>
<path d="M253.9,49.9c-6.5,8.5-12.5,15.9-17.8,23.7c-1.1,1.6-0.3,5.5,1,7.5c4.4,6.9,9.5,13.3,14.1,20.1c1.2,1.7,1.5,4,2.3,6
	c-0.8,0.4-1.5,0.8-2.3,1.2c-1.8-2-3.8-3.9-5.4-6.1c-8.4-11.5-17.2-22.8-24.9-34.7c-4.8-7.5-10.7-11.8-19.2-12.9
	c-9.8,13.7-9.8,13.7-20.6,1.9c-4.5,5.7-9,11.3-14.5,18.2c-2.8-5.8-4.9-10.2-7.9-16.4c-4.4,3.2-9.5,5.6-12.6,9.4
	c-7.9,9.9-14.8,20.5-22.3,30.7c-1.5,2.1-3.7,3.7-5.5,5.5c-0.8-0.6-1.6-1.1-2.4-1.7c1.6-2.9,3.1-5.9,4.9-8.7
	c7.4-10.9,7.4-10.9-0.7-20.9c-3.8-4.7-7.6-9.3-12.2-14.8c-6,8-11.4,15.3-16,21.6c3.5,3,6.6,5.6,9.7,8.2c3.3-4,7-8.3,10.6-12.6
	c1,0.8,1.9,1.6,2.9,2.4c-4.3,6.6-8.6,13.2-12.9,19.8c-0.9,0.3-1.8,0.6-2.7,0.9c-0.6-1.4-1.1-3-1.9-4.3c-4.5-7-9.6-7.5-15.3-1.2
	c-4,4.5-7.4,9.6-11.4,14.2c-1.1,1.2-3.4,1.4-5.1,2c0.2-1.6-0.2-3.7,0.7-4.9c12.9-17.3,26-34.6,39.1-51.8c0.4-0.6,1.3-0.8,3-1.8
	c7.3,8.7,14.7,17.5,22.9,27.2c17.1-24.1,33.9-47.7,51.9-73.1c15.9,22.7,30.8,44.1,46.7,66.8c6.3-8.2,12.2-15.9,18.1-23.4
	c5.5-6.9,6.2-6.9,11.6,0c13.8,17.7,27.6,35.3,41.3,53.1c1.7,2.2,2.6,4.9,3.9,7.4c-1,0.7-2.1,1.4-3.1,2.2
	C286.2,90.9,270.5,70.9,253.9,49.9z M183.4,14.3c-9.6,13.4-18.5,25.9-26.6,37.2c2.8,1.5,5.6,2.2,7.1,4c1.8,2.1,2.4,5.2,3.9,8.6
	c5-6.2,9.1-11.3,13.9-17.2c3.7,4.8,6.6,8.6,9.5,12.5c5-4.8,5.8-15,18-8.3C199.9,37.8,192,26.6,183.4,14.3z"/>
<path d="M350.7,97.2c-4.2-1.8-8.4-3.6-12.5-5.3c0.7-4.8,3.1-6.1,7.1-5.3c1.9,0.4,4,0.2,5.9,0.7c5,1.3,8.7,0.3,11.8-4.3
	c0.8-1.3,3.9-1,6-1.5c0.1,2.1,1.1,5,0.1,6c-4.1,4.5-3.2,8.9-0.9,13.6c0.9,1.8,1.3,3.7,2.1,5.5c1.1,2.7,0.9,5.2-1.9,6.1
	c-1.1,0.3-3.3-1.3-4.4-2.6c-2-2.4-3.5-5.1-5.5-8.1c-2.8,2.7-5.4,5-4.4,9.3c0.2,0.9-0.8,2.6-1.7,3c-0.7,0.3-2-0.9-3-1.6
	c-1.8-1.2-3.6-2.5-5.3-3.9c-1.1-0.8-2-1.9-2.9-2.8c1.2-1,2.2-2.2,3.5-3c2.3-1.5,4.6-2.8,7-4.2C351.3,98.3,351,97.7,350.7,97.2z
	 M349.9,107.7c2.2-2.8,4.3-5.5,6.4-8.1c1.7-2.1,3.2-1.9,4.6,0.3c1.9,2.9,3.8,5.9,5.8,8.8c-0.1-3.2-0.9-6.1-2.3-8.7
	c-2.2-4.3-3.2-8.2,0.9-12c0.9-0.8,1.1-2.3,1.6-3.4c-1.9,0.3-3.1,1-3.7,2.1c-2.3,4.1-5.7,4.8-10.1,3.9c-3.1-0.7-6.4-0.7-9.6-0.9
	c-0.1,0.3-0.2,0.7-0.3,1c4,1.5,8,3,13.2,5c-3.2,4.1-5.9,7.6-8.5,11.1C348.2,106.9,349.3,107.4,349.9,107.7z"/>
<path class="st0" d="M364.4,100c1.3,2.6,2.1,5.4,2.3,8.7c-1.9-2.9-3.9-5.8-5.8-8.8c-1.4-2.2-2.9-2.5-4.6-0.3
	c-2.1,2.7-4.2,5.3-6.4,8.1c-0.5-0.3-1.7-0.8-2-0.9c2.6-3.4,5.3-6.9,8.5-11.1c-5.2-1.9-9.2-3.5-13.2-5c0.1-0.3,0.2-0.7,0.3-1
	c3.2,0.3,6.5,0.3,9.6,0.9c4.4,0.9,7.7,0.2,10.1-3.9c0.6-1.1,1.8-1.8,3.7-2.1c-0.5,1.2-0.7,2.6-1.6,3.4
	C361.2,91.8,362.2,95.7,364.4,100z"/>
<g>
	<path d="M270.4,160.5c-8.4,0-15.7,0-24.1,0c0,5.6-0.1,11.1,0,16.6c0,3-0.1,5.6-4.2,5.6c-3.8,0-4.6-2-4.6-5.3
		c0.1-13.5,0-27.1-0.1-40.6c0-3.2,1.1-5,4.3-5c3.2,0,4.6,1.5,4.5,4.8c-0.2,5.1,0,10.2,0,15.7c8.2,0,15.6,0,24.1,0
		c0-5.2-0.4-10.3,0.2-15.3c0.2-1.9,2.4-4.6,4.2-5c3.4-0.8,4.7,1.7,4.7,5.1c-0.1,13.5-0.1,27.1,0,40.6c0,3.1-1.2,5.5-4.4,4.6
		c-1.8-0.5-4.2-2.9-4.4-4.7C270,172.1,270.4,166.6,270.4,160.5z"/>
	<path d="M343.2,148.6c10-6.1,18.2-5.5,23.6,0.9c5.8,7,5.4,22.1-0.8,28.9c-5.6,6.1-13.5,6.2-21.2,1.1c-3.2,1.1-5.6,2.6-7.8,2.4
		c-0.9-0.1-2.1-3.7-2.1-5.8c-0.2-13.9-0.1-27.8-0.1-41.8c0-2.9-0.1-5.7,4.1-5.7c4,0,4.4,2.3,4.4,5.5
		C343.1,138.8,343.2,143.3,343.2,148.6z M343.2,163.3c0.1,8.2,2.4,11.9,8,12.5c6.4,0.7,10.5-3.5,10.9-11.1
		c0.5-8.3-3.4-13.6-9.8-13.5C346.4,151.3,343.2,155.6,343.2,163.3z"/>
	<path d="M160.9,166.1c1.1,8.6,7.7,12.3,15.2,8.8c1.2-0.6,2.3-2,3.5-2.1c1.5-0.2,3.8,0.1,4.6,1.1c0.7,0.8,0.3,3.6-0.6,4.4
		c-5.7,5.6-12.9,6.1-20.1,4.1c-7.3-2.1-11-7.8-11.9-15c-1-8.2,0.7-15.7,8.2-20.4c6.4-4,13.3-4,19.9-0.1c6,3.5,7.5,9.6,7.4,16
		c0,1.1-2.8,3.1-4.3,3.2C175.8,166.3,168.6,166.1,160.9,166.1z M178.8,159.9c-0.2-6.3-3.4-9-8.6-9.2c-5.1-0.2-8.7,3.6-9.1,9.2
		C166.8,159.9,172.5,159.9,178.8,159.9z"/>
	<path d="M97.6,180.1c-5.4,1-10.5,2.5-15.6,2.6c-5.2,0.1-8.2-3.7-9.1-8.7c-0.8-4.8,1-9,5.6-10.8c4.2-1.7,8.8-2.1,13.2-3.3
		c1.8-0.5,3.4-1.8,5-2.8c-1.7-1.9-3.2-4.9-5.2-5.3c-3.1-0.6-6.5,0.9-9.8,1.1c-1.8,0.1-3.6-0.8-5.4-1.2c0.8-1.6,1.1-3.9,2.4-4.7
		c6.4-3.7,13.4-4,20.1-1c6.3,2.8,6.8,8.8,7,14.7c0.2,5.2,0.3,10.4-0.1,15.5c-0.2,2.2-1.7,4.2-2.6,6.3
		C100.9,181.6,98.7,180.6,97.6,180.1z M96.1,164.7c-3.3,0.6-6.2,1.1-9.1,1.6c-0.8,0.2-1.8,0.4-2.2,0.9c-1.2,1.8-3.1,3.9-3,5.7
		c0.1,1.3,2.9,3.2,4.7,3.5C93,177.7,97.2,172.7,96.1,164.7z"/>
	<path d="M313.7,179.1c-0.7,0.4-2.6,2-4.8,2.9c-9.9,4.2-18.2-1.3-18.4-12.1c-0.1-6.6,0.1-13.1-0.1-19.7c-0.1-3.4,0.8-5.3,4.5-5.4
		c4.2-0.1,4.1,2.7,4,5.7c-0.1,5.4,0,10.8,0,16.1c0,4.8,0.9,8.9,6.9,9.1c5,0.1,9.1-3.5,9.4-8.9c0.3-5.6,0.2-11.2,0.1-16.7
		c-0.1-3.4,0.9-5.3,4.6-5.2c3.5,0.1,4.1,2.1,4.1,5.1c-0.2,8.8,0.1,17.5-0.3,26.3c-0.1,2.1-1.7,4.2-2.6,6.3
		C318.9,181.5,316.7,180.5,313.7,179.1z"/>
	<path d="M15.9,139.7c-4.1,0-7.8,0.4-11.5-0.2c-1.6-0.2-3-2.3-4.4-3.5c1.5-1.4,2.9-4.1,4.4-4.1c10.7-0.3,21.5-0.3,32.2,0.1
		c1.5,0,2.8,2.4,4.3,3.7c-1.5,1.4-2.9,3.6-4.6,3.9c-3.4,0.6-7.1,0.2-11.4,0.2c0,8.4,0,16.3,0,24.1c0,4.4-0.1,8.7,0,13.1
		c0.1,3.1-0.2,5.6-4.2,5.6c-3.9,0-4.4-2.2-4.4-5.4c0.1-10.3,0-20.7,0-31C16.2,144.2,16,142.2,15.9,139.7z"/>
	<path d="M129.9,173.5c3.2-8.8,5.8-16.5,8.7-24c0.7-1.8,2.3-3.9,4-4.6c3.4-1.3,5.8,1.3,4.6,4.8c-3.8,10.1-7.5,20.1-11.8,29.9
		c-0.7,1.6-4.1,3-6.1,2.8c-2-0.2-4.7-2.1-5.5-3.9c-3.9-8.9-7.3-18.1-10.5-27.2c-0.6-1.7-0.3-5.3,0.7-5.8c2.9-1.5,5.8-0.7,7.1,3
		C123.7,156.3,126.5,164.2,129.9,173.5z"/>
	<path d="M195.3,152.2c0-6,0.1-11.9,0-17.9c-0.1-3.4,0.3-6,4.6-5.9c3.9,0.1,4.3,2.6,4.2,5.7c-0.1,11.5-0.1,23.1-0.1,34.6
		c0,3.4,0.1,6.3,4.6,6.9c1.1,0.1,2.7,2.4,2.6,3.6c-0.1,1.2-1.8,3-3.1,3.3c-6.8,1.7-12-1.7-12.4-8.9c-0.5-7.1-0.1-14.3-0.1-21.5
		C195.5,152.2,195.4,152.2,195.3,152.2z"/>
	<path d="M55.5,147.6c3-1.1,6.4-2.6,9.9-3.3c1-0.2,3.5,2.1,3.6,3.4c0,1.3-1.7,3.6-3.1,4c-10.5,2.8-11.1,3.4-11.1,13.9
		c0,3.8,0,7.6,0,11.3c0.1,3.1,0.2,6-4.4,5.9c-4.2-0.1-4.1-2.7-4.1-5.6c0-8.5-0.2-17.1,0.1-25.6c0.1-2.2,1.5-4.4,2.4-6.6
		C51,145.8,53.3,146.7,55.5,147.6z"/>
</g>
<path class="st0" d="M183.4,14.3c8.6,12.3,16.4,23.4,25.8,36.8c-12.2-6.8-13,3.5-18,8.3c-2.9-3.9-5.8-7.6-9.5-12.5
	c-4.8,5.9-8.9,11.1-13.9,17.2c-1.5-3.4-2.1-6.5-3.9-8.6c-1.5-1.8-4.3-2.5-7.1-4C165,40.2,173.9,27.7,183.4,14.3z"/>
</svg>
